P3
16 16
255
255 255 255  255 255 255  255 255 255  255 255 255  255 255 255
255 255 255  255 255 255  255 255 255  255 255 255  255 255 255
255 255 255  255 255 255  255 255 255  255 255 255  255 255 255
255 255 255
255 255 255  255 255 255  255 255 255  255 255 255  255 255 255
255 255 255  255 255 255  255 255 255  255 255 255  255 255 255
255 255 255  255 255 255  255 255 255  255 255 255  255 255 255
255 255 255
255 255 255  255 255 255  255 255 255  255 255 255  255 255 255
255 255 255  255 255 255  255 255 255  255 255 255  255 255 255
255 255 255  255 255 255  255 255 255  255 255 255  255 255 255
255 255 255
255 255 255  255 255 255  255 255 255  255   0 136  255   0 136
255   0 136  255 255 255  255 255 255  255 255 255  255 255 255
255 255 255  255   0 136  255   0 136  255   0 136  255 255 255
255 255 255
255 255 255  255 255 255  255   0 136  255   0 136  255   0 136
255   0 136  255   0 136  255 255 255  255 255 255  255 255 255
255   0 136  255   0 136  255   0 136  255   0 136  255   0 136
255 255 255
255 255 255  255 255 255  255   0 136  255   0 136  255   0 136
255   0 136  255   0 136  255   0 136  255 255 255  255   0 136
255   0 136  255   0 136  255   0 136  255   0 136  255   0 136
255 255 255
255 255 255  255 255 255  255   0 136  255   0 136  255   0 136
255   0 136  255   0 136  255   0 136  255   0 136  255   0 136
255   0 136  255   0 136  255   0 136  255   0 136  255   0 136
255 255 255
255 255 255  255 255 255  255   0 136  255   0 136  255   0 136
255   0 136  255   0 136  255   0 136  255   0 136  255   0 136
255   0 136  255   0 136  255   0 136  255   0 136  255   0 136
255 255 255
255 255 255  255 255 255  255 255 255  255   0 136  255   0 136
255   0 136  255   0 136  255   0 136  255   0 136  255   0 136
255   0 136  255   0 136  255   0 136  255   0 136  255 255 255
255 255 255
255 255 255  255 255 255  255 255 255  255 255 255  255   0 136
255   0 136  255   0 136  255   0 136  255   0 136  255   0 136
255   0 136  255   0 136  255   0 136  255 255 255  255 255 255
255 255 255
255 255 255  255 255 255  255 255 255  255 255 255  255 255 255
255   0 136  255   0 136  255   0 136  255   0 136  255   0 136
255   0 136  255   0 136  255 255 255  255 255 255  255 255 255
255 255 255
255 255 255  255 255 255  255 255 255  255 255 255  255 255 255
255 255 255  255   0 136  255   0 136  255   0 136  255   0 136
255   0 136  255 255 255  255 255 255  255 255 255  255 255 255
255 255 255
255 255 255  255 255 255  255 255 255  255 255 255  255 255 255
255 255 255  255 255 255  255   0 136  255   0 136  255   0 136
255 255 255  255 255 255  255 255 255  255 255 255  255 255 255
255 255 255
255 255 255  255 255 255  255 255 255  255 255 255  255 255 255
255 255 255  255 255 255  255 255 255  255   0 136  255 255 255
255 255 255  255 255 255  255 255 255  255 255 255  255 255 255
255 255 255
255 255 255  255 255 255  255 255 255  255 255 255  255 255 255
255 255 255  255 255 255  255 255 255  255 255 255  255 255 255
255 255 255  255 255 255  255 255 255  255 255 255  255 255 255
255 255 255
255 255 255  255 255 255  255 255 255  255 255 255  255 255 255
255 255 255  255 255 255  255 255 255  255 255 255  255 255 255
255 255 255  255 255 255  255 255 255  255 255 255  255 255 255
255 255 255
