P3
16 16
255
255 255 255  255 255 255  255 255 255  255 255 255  255 255 255
255 255 255  255 255 255  255 255 255  255 255 255  255 255 255
255 255 255  255 255 255  255 255 255  255 255 255  255 255 255
255 255 255
255 255 255  255 255 255  255 255 255  255 255 255  255 255 255
255 255 255  255 255 255  255 255 255  255 255 255  255 255 255
255 255 255   26 255  26   26 255  26  255 255 255  255 255 255
255 255 255
255 255 255  255 255 255  102 102 102  102 102 102  102 102 102
102 102 102  102 102 102  102 102 102  102 102 102  102 102 102
 26 255  26   26 255  26    0 204   0    0 204   0  255 255 255
255 255 255
255 255 255  255 255 255  102 102 102  255 255 255  255 255 255
255 255 255  255 255 255  255 255 255  255 255 255   26 255  26
 26 255  26    0 204   0    0 204   0    0 204   0    0 128   0
255 255 255
255 255 255  255 255 255  102 102 102  255 255 255  255 255 255
255 255 255  255 255 255  255 255 255   26 255  26   26 255  26
  0 204   0    0 204   0    0 204   0    0 128   0    0 128   0
255 255 255
255 255 255  255 255 255  102 102 102  255 255 255  255 255 255
255 255 255  255 255 255   26 255  26   26 255  26    0 204   0
  0 204   0    0 204   0    0 128   0    0 128   0  255 255 255
255 255 255
255 255 255  255 255 255  255 255 255  255 255 255  255 255 255
255 255 255   26 255  26   26 255  26    0 204   0    0 204   0
  0 204   0    0 128   0    0 128   0  102 102 102  255 255 255
255 255 255
255 255 255  255 255 255  255 255 255  255 255 255  255 255 255
 26 255  26   26 255  26    0 204   0    0 204   0    0 204   0
  0 128   0    0 128   0  255 255 255  102 102 102  255 255 255
255 255 255
255 255 255  255 255 255  255 255 255  255 255 255   26 255  26
 26 255  26    0 204   0    0 204   0    0 204   0    0 128   0
  0 128   0  255 255 255  255 255 255  102 102 102  255 255 255
255 255 255
255 255 255  255 255 255  255 255 255   26 255  26   26 255  26
  0 204   0    0 204   0    0 204   0    0 128   0    0 128   0
255 255 255  255 255 255  255 255 255  102 102 102  255 255 255
255 255 255
255 255 255  255 255 255  224 208 133  224 208 133    0 204   0
  0 204   0    0 204   0    0 128   0    0 128   0  255 255 255
255 255 255  255 255 255  255 255 255  102 102 102  255 255 255
255 255 255
255 255 255  255 255 255  224 208 133  214 192  92  214 192  92
  0 204   0    0 128   0    0 128   0  255 255 255  255 255 255
255 255 255  255 255 255  255 255 255  102 102 102  255 255 255
255 255 255
255 255 255  255 255 255   51  51  51  214 192  92  214 192  92
209 184  72    0 128   0  255 255 255  255 255 255  255 255 255
255 255 255  255 255 255  255 255 255  102 102 102  255 255 255
255 255 255
255 255 255  255 255 255   51  51  51   51  51  51  209 184  72
209 184  72  102 102 102  102 102 102  102 102 102  102 102 102
102 102 102  102 102 102  102 102 102  102 102 102  255 255 255
255 255 255
255 255 255  255 255 255  255 255 255  255 255 255  255 255 255
255 255 255  255 255 255  255 255 255  255 255 255  255 255 255
255 255 255  255 255 255  255 255 255  255 255 255  255 255 255
255 255 255
255 255 255  255 255 255  255 255 255  255 255 255  255 255 255
255 255 255  255 255 255  255 255 255  255 255 255  255 255 255
255 255 255  255 255 255  255 255 255  255 255 255  255 255 255
255 255 255
